<svg id="Capa_1" enable-background="new 0 0 512 512" height="512" viewBox="0 0 512 512" width="512" xmlns="http://www.w3.org/2000/svg" xmlns:xlink="http://www.w3.org/1999/xlink"><linearGradient id="lg1"><stop offset="0" stop-color="#0056e0"/><stop offset="1" stop-color="#fc54ff"/></linearGradient><linearGradient id="SVGID_1_" gradientUnits="userSpaceOnUse" x1="74.981" x2="437.02" xlink:href="#lg1" y1="437.019" y2="74.98"/><radialGradient id="SVGID_2_" cx="258.029" cy="203.267" gradientUnits="userSpaceOnUse" r="311.592"><stop offset=".0053" stop-color="#8d00db" stop-opacity=".66"/><stop offset=".6759" stop-color="#db3bf4" stop-opacity=".215"/><stop offset="1" stop-color="#fc54ff" stop-opacity="0"/></radialGradient><linearGradient id="lg2"><stop offset="0" stop-color="#fda0ff"/><stop offset=".3772" stop-color="#fec1ff"/><stop offset="1" stop-color="#fff"/></linearGradient><linearGradient id="SVGID_3_" gradientUnits="userSpaceOnUse" x1="327.894" x2="436.222" xlink:href="#lg2" y1="307.227" y2="198.899"/><linearGradient id="SVGID_4_" gradientUnits="userSpaceOnUse" x1="297.125" x2="448.484" xlink:href="#lg2" y1="401.868" y2="250.509"/><linearGradient id="SVGID_5_" gradientUnits="userSpaceOnUse" x1="433.125" x2="362.511" y1="319.334" y2="209.23"><stop offset="0" stop-color="#fc54ff" stop-opacity="0"/><stop offset=".2021" stop-color="#f851fe" stop-opacity=".134"/><stop offset=".3885" stop-color="#ed49fa" stop-opacity=".258"/><stop offset=".5688" stop-color="#da3bf4" stop-opacity=".377"/><stop offset=".7454" stop-color="#c027ec" stop-opacity=".495"/><stop offset=".9176" stop-color="#9f0de1" stop-opacity=".609"/><stop offset=".9947" stop-color="#8d00db" stop-opacity=".66"/></linearGradient><linearGradient id="lg3"><stop offset="0" stop-color="#b31de7"/><stop offset="1" stop-color="#fda0ff"/></linearGradient><linearGradient id="SVGID_6_" gradientUnits="userSpaceOnUse" x1="-110.399" x2="480.909" xlink:href="#lg3" y1="526.907" y2="-64.401"/><linearGradient id="SVGID_7_" gradientUnits="userSpaceOnUse" x1="-6.58" x2="481.81" xlink:href="#lg3" y1="546.392" y2="58.002"/><linearGradient id="SVGID_8_" gradientUnits="userSpaceOnUse" x1="-264.542" x2="404.246" xlink:href="#lg3" y1="722.744" y2="53.956"/><linearGradient id="SVGID_9_" gradientUnits="userSpaceOnUse" x1="-89.06" x2="309.563" xlink:href="#lg3" y1="617.503" y2="218.88"/><linearGradient id="SVGID_10_" gradientUnits="userSpaceOnUse" x1="-48.711" x2="350.101" xlink:href="#lg3" y1="570.351" y2="171.539"/><linearGradient id="SVGID_11_" gradientUnits="userSpaceOnUse" x1="-100.686" x2="360.444" xlink:href="#lg3" y1="612.613" y2="151.483"/><linearGradient id="SVGID_12_" gradientUnits="userSpaceOnUse" x1="201.745" x2="344.281" xlink:href="#lg1" y1="348.595" y2="206.06"/><linearGradient id="SVGID_13_" gradientUnits="userSpaceOnUse" x1="163.296" x2="383.934" xlink:href="#lg1" y1="395.061" y2="174.423"/><linearGradient id="SVGID_14_" gradientUnits="userSpaceOnUse" x1="155.635" x2="376.273" xlink:href="#lg1" y1="402.722" y2="182.084"/><radialGradient id="SVGID_15_" cx="260.147" cy="322.041" gradientTransform="matrix(1 0 0 .426 0 184.868)" gradientUnits="userSpaceOnUse" r="193.41"><stop offset=".3418" stop-color="#8d00db" stop-opacity="0"/><stop offset=".9947" stop-color="#8d00db" stop-opacity=".66"/></radialGradient><linearGradient id="SVGID_16_" gradientUnits="userSpaceOnUse" x1="255.789" x2="461.738" xlink:href="#lg2" y1="508.781" y2="302.832"/><linearGradient id="SVGID_17_" gradientUnits="userSpaceOnUse" x1="323.978" x2="442.484" xlink:href="#lg2" y1="432.97" y2="314.464"/><linearGradient id="SVGID_18_" gradientUnits="userSpaceOnUse" x1="297.479" x2="417.372" xlink:href="#lg3" y1="455.562" y2="335.669"/><linearGradient id="SVGID_19_" gradientUnits="userSpaceOnUse" x1="306.437" x2="426.16" xlink:href="#lg3" y1="430.102" y2="310.38"/><g><circle cx="256" cy="256" fill="url(#SVGID_1_)" r="256"/><circle cx="256" cy="256" fill="url(#SVGID_2_)" r="256"/><path d="m394.295 204.195c.103 18.457.106 36.913.011 55.369 2.543 3.425 5.082 6.848 7.616 10.265 2.611-6.703 5.21-13.396 7.797-20.082.055-15.158.036-30.316-.058-45.475-5.122-.027-10.244-.052-15.366-.077z" fill="url(#SVGID_3_)"/><path d="m394.306 259.564c-.132 25.408-.451 50.814-.958 76.222 5.087-.088 10.174-.181 15.261-.279.636-28.586 1.006-57.173 1.111-85.76-5.137 3.264-10.275 6.538-15.414 9.817z" fill="url(#SVGID_4_)"/><path d="m394.295 204.195c.244 43.863-.072 87.727-.948 131.591 5.087-.088 10.174-.181 15.261-.279.973-43.745 1.324-87.49 1.053-131.234-5.122-.028-10.244-.053-15.366-.078z" fill="url(#SVGID_5_)"/><path d="m338.777 95.819c-25.113-16.468-50.04-32.904-74.66-49.14-4.952-3.266-11.282-3.266-16.233 0-60.878 40.145-123.637 81.51-186.431 121.592-9.501 6.061-9.717 19.451-.368 25.278 61.772 38.54 124.6 79.099 186.637 119.18 5.046 3.259 11.51 3.263 16.556 0 25.089-16.209 50.306-32.497 75.532-48.697.202-56.071-.142-112.141-1.033-168.213z" fill="url(#SVGID_6_)"/><path d="m450.547 168.272c-37.399-23.872-74.786-48.199-111.77-72.453-30.512 51.09-30.513 116.831 1.033 168.214 37.15-23.86 74.315-47.53 111.106-70.483 9.348-5.825 9.132-19.217-.369-25.278z" fill="url(#SVGID_7_)"/><path d="m148.584 180.071c-.395 21.078-.106 114.513.076 114.516.4 33.157 56.019 49.141 107.34 49.116 0-70.896 0-141.792 0-212.688-51.394-.015-107.068 15.9-107.416 49.056z" fill="url(#SVGID_8_)"/><path d="m256 131.015v212.688c51.322.023 106.94-15.959 107.34-49.116.182.001.472-93.432.076-114.516-.348-33.161-56.022-49.068-107.416-49.056z" fill="url(#SVGID_9_)"/><path d="m348.006 294.7c.156-.001.404-93.606.065-114.728-.299-33.234-48.019-48.968-92.071-48.958v212.688c43.99.018 91.663-15.763 92.006-49.002z" fill="url(#SVGID_10_)"/><path d="m256 131.015c-22.026-.007-45.886 15.36-46.036 48.755-.169 21.2-.045 115.167.033 115.166.171 33.4 24.008 48.773 46.003 48.767 43.99.017 91.663-15.763 92.006-49.002.156-.001.404-93.606.065-114.728-.299-33.234-48.019-48.969-92.071-48.958z" fill="url(#SVGID_11_)"/><path d="m256 261.703c-50.93.023-92.17 14.729-92.006 32.998.021 2.631.899 5.2 2.529 7.667 59.651.448 119.302.448 178.954 0 1.63-2.467 2.508-5.035 2.529-7.667.164-18.27-41.076-32.972-92.006-32.998z" fill="url(#SVGID_12_)"/><path d="m256 328.328c43.324-.002 79.749-11.283 89.477-25.96-9.442-14.533-45.907-25.277-89.477-25.29-43.57.014-80.035 10.759-89.477 25.29 9.728 14.672 46.154 25.963 89.477 25.96z" fill="url(#SVGID_13_)"/><path d="m256 328.328c43.324-.002 79.749-11.283 89.477-25.96-9.442-14.533-45.907-25.277-89.477-25.29-43.57.014-80.035 10.759-89.477 25.29 9.728 14.672 46.154 25.963 89.477 25.96z" fill="url(#SVGID_14_)"/><path d="m348.006 294.7c-.18 18.263-41.419 33.615-92.006 33.627-50.587-.017-91.826-15.367-92.006-33.627-.164-18.268 41.076-32.974 92.006-32.998 50.93.026 92.169 14.728 92.006 32.998z" fill="url(#SVGID_15_)"/><path d="m401.524 305.292c-2.794.036-5.415.825-7.688 2.146-.503 34.782-1.359 69.564-2.566 104.346 2.505-.077 5.01-.156 7.515-.236-.152 4.196 3.075 7.476 7.216 7.331 4.141-.139 7.643-3.663 7.814-7.841 1.231-30.273 2.149-60.543 2.752-90.815.169-8.357-6.581-15.035-15.043-14.931z" fill="url(#SVGID_16_)"/><path d="m393.836 307.438c-4.612 2.684-7.763 7.629-7.853 13.259-.489 30.437-1.231 60.873-2.228 91.31-.136 4.206 3.105 7.508 7.246 7.376 4.141-.137 7.629-3.646 7.784-7.836 1.114-30.358 1.944-60.717 2.49-91.076.101-5.613-2.903-10.459-7.439-13.033z" fill="url(#SVGID_17_)"/><path d="m416.239 335.356c-5.087.103-10.174.2-15.261.294-.107 5.06-.221 10.119-.344 15.18 5.075-.107 10.15-.219 15.225-.337 4.203-.1 7.707-3.565 7.818-7.738.111-4.176-3.223-7.479-7.438-7.399z" fill="url(#SVGID_18_)"/><path d="m408.434 343.086c.101-4.185-3.241-7.512-7.456-7.436-5.087.092-10.174.18-15.261.264-4.215.067-7.691 3.531-7.77 7.74-.079 4.207 3.259 7.56 7.462 7.479 5.075-.096 10.15-.197 15.225-.303 4.203-.091 7.699-3.555 7.8-7.744z" fill="url(#SVGID_19_)"/></g></svg>